<svg width="375" height="1051" viewBox="0 0 375 1051" fill="none" xmlns="http://www.w3.org/2000/svg">
<path opacity="0.21" d="M160.051 -119.404H245.695C247.171 -117.842 247.663 -116.279 248.156 -114.717C249.632 -108.467 251.109 -102.217 252.585 -95.9676C257.015 -76.4372 261.937 -55.3445 265.383 -35.033C267.351 -22.5336 269.32 -10.0341 271.289 1.68404C272.766 10.2774 273.75 18.0895 275.227 26.6828C279.164 52.4629 286.055 72.7744 296.884 90.7423C299.837 95.4296 302.79 100.117 305.743 105.585C310.665 113.397 315.587 121.21 320.017 129.022C333.307 154.802 340.69 186.05 343.151 225.892L343.643 234.486C344.627 254.797 346.104 275.89 348.565 296.201C353.979 342.293 357.917 389.947 359.886 442.288C360.378 456.35 361.854 474.318 365.792 491.505C371.206 513.378 380.558 527.44 393.355 531.346C396.801 532.128 399.754 532.909 403.2 532.909C413.536 532.909 423.38 527.44 432.732 515.722C446.021 500.098 455.373 476.661 462.264 445.413C468.17 418.852 468.663 390.728 469.155 366.51C469.647 347.761 470.139 328.231 472.108 308.701C476.538 266.515 488.843 231.361 508.531 205.581C515.914 195.425 524.281 186.831 532.157 178.238L537.571 171.988C571.041 135.271 566.611 71.9932 563.166 46.9944C562.181 39.9635 559.72 34.495 557.259 29.0265C550.368 14.9647 540.524 11.0586 531.665 9.49619C524.774 7.93376 517.391 7.93375 512.469 7.93375C509.515 7.93375 507.054 7.93375 504.101 7.93375C501.148 7.93375 498.687 7.93375 495.734 7.93375C494.257 7.93375 492.78 7.93375 491.304 7.93375C483.429 7.93375 477.03 6.37132 470.631 4.02768C444.545 -6.9093 421.903 -30.3457 401.231 -67.8439C394.832 -79.5621 389.418 -95.1864 384.496 -114.717C383.511 -117.842 383.511 -119.404 384.004 -120.185H424.364C425.841 -118.623 426.825 -116.279 427.81 -113.154C434.208 -93.6239 441.099 -78.7809 448.974 -67.8439C464.725 -46.7512 483.429 -36.5954 507.054 -36.5954C510.992 -36.5954 515.422 -36.5954 519.852 -37.3766C532.157 -38.939 544.954 -40.5015 557.751 -42.8451C566.119 -44.4075 574.486 -45.9699 582.854 -49.0948C590.237 -52.2197 594.667 -59.2506 597.62 -70.9688C600.081 -81.1245 601.557 -92.8427 603.034 -107.686V-110.029C603.034 -113.935 603.526 -117.06 605.003 -119.404H642.902C644.379 -117.842 645.363 -115.498 646.348 -113.154C652.254 -99.8736 658.653 -91.2803 666.036 -85.8118C672.927 -81.1245 680.31 -77.9997 687.201 -74.8748H687.693C690.154 -74.0936 692.123 -73.3124 694.584 -71.75C703.443 -67.8439 712.795 -63.9378 721.655 -57.6881C734.452 -48.3136 742.328 -38.1578 747.25 -23.3148C756.109 1.68404 759.062 29.8077 756.601 58.7126C752.664 102.461 739.866 133.709 717.717 153.239C699.014 169.645 679.818 179.019 664.559 186.05C661.606 187.613 658.653 188.394 656.192 189.956C646.348 193.862 636.504 198.55 627.152 205.581C610.417 217.299 600.081 238.392 596.635 268.078C594.667 282.139 594.667 296.983 594.667 311.044V318.856C594.667 332.137 596.143 346.199 598.604 362.604C605.987 405.571 622.23 440.726 648.317 468.849C662.591 483.692 677.357 495.411 692.615 507.129C696.06 510.254 699.998 512.597 703.443 515.722C717.225 526.659 731.499 539.159 745.281 554.783C751.679 561.814 758.078 570.407 762.016 582.125V728.212C761.523 728.212 760.539 726.65 760.047 725.868C759.555 725.087 759.062 724.306 758.57 724.306C747.742 708.682 738.882 696.182 731.007 684.464C715.749 661.028 702.459 634.466 686.708 603.218C672.927 575.875 661.606 555.564 649.793 537.596C646.84 533.69 643.887 529.003 641.426 525.097C631.09 510.254 620.753 493.848 610.909 477.443C601.065 460.256 592.205 439.945 584.822 415.727C574.978 384.478 570.549 350.105 567.103 320.419L565.626 316.513C564.15 300.889 562.181 285.264 558.736 270.421C555.29 257.141 548.892 249.329 541.016 249.329C539.54 249.329 537.571 249.329 536.094 250.11C532.157 251.672 528.219 254.016 523.789 257.922C510.5 269.64 504.593 289.952 500.656 308.701C495.734 330.575 494.749 353.23 493.273 375.885L492.78 386.041C490.812 428.226 482.936 468.068 470.139 503.223C460.295 529.784 447.99 550.877 433.716 564.939C420.919 577.438 406.645 583.688 390.402 583.688C383.019 583.688 376.62 582.906 368.745 580.563C353.979 576.657 344.135 563.376 339.705 540.721C337.244 527.44 336.752 513.378 336.26 501.66C335.768 489.942 335.768 478.224 335.275 466.506C335.275 453.225 334.783 439.945 334.291 426.664C333.307 398.54 329.861 371.198 323.955 344.637C318.048 318.075 310.173 290.733 299.345 257.141C289.008 225.892 276.703 204.018 260.953 191.519C253.078 185.269 246.187 180.582 239.788 180.582C231.421 180.582 224.53 188.394 217.147 207.143C205.334 236.048 193.029 261.047 180.232 284.483C168.419 305.576 155.129 325.887 135.441 350.886C118.706 371.979 107.385 393.072 99.5101 417.289C98.0336 424.32 95.5726 431.351 93.6038 439.163C90.6506 448.538 87.6973 458.694 84.2519 468.849C71.9468 504.785 56.1963 527.44 36.016 538.377C30.1096 541.502 23.7109 543.846 17.3122 546.971C8.45258 550.877 -0.407074 555.564 -9.26672 561.032C-38.3067 578.219 -56.5182 606.343 -65.3778 647.747C-71.2843 675.09 -72.7609 698.526 -70.2999 721.181C-67.8389 741.493 -62.4246 761.023 -53.0728 778.21C-34.8612 813.364 -19.603 847.738 -6.31348 883.673C-1.39145 896.173 2.54614 906.328 6.97598 914.922C16.3279 932.109 26.1719 940.702 37.9848 940.702H39.4614C56.1963 939.921 71.4546 928.203 87.2051 903.985C99.5101 886.017 106.893 861.799 114.276 838.363L114.768 836.801C125.597 802.427 138.886 773.522 154.637 750.867C170.387 728.212 186.138 705.557 201.888 682.902C210.748 670.402 219.608 657.903 228.467 644.622C246.679 618.842 264.89 606.343 284.579 606.343C286.055 606.343 287.532 606.343 289.008 606.343C302.79 607.905 312.142 614.155 319.525 628.217C324.447 637.591 328.385 647.747 332.322 660.247C334.291 667.277 336.26 673.527 338.229 679.777C344.627 702.432 352.01 725.087 360.378 746.18C369.73 769.616 379.574 785.241 390.894 796.178C400.739 805.552 410.583 810.239 419.934 810.239C426.333 810.239 432.24 807.896 438.638 803.99C445.037 800.084 450.451 795.396 455.373 790.709C458.818 787.584 461.772 784.459 465.217 781.334C473.092 773.522 481.46 764.929 490.319 757.898C503.117 747.742 515.914 743.055 529.204 743.055C534.618 743.055 540.524 743.836 546.431 746.18C571.533 753.992 589.252 784.459 593.682 827.426C595.651 843.05 595.651 861.018 593.682 882.111C591.221 918.047 576.947 943.827 556.275 951.639C544.462 955.545 532.649 956.326 520.836 957.107C515.422 957.107 510.008 957.889 505.086 958.67C502.132 958.67 499.179 958.67 496.226 958.67C491.796 958.67 486.874 958.67 481.952 960.232C460.295 964.92 444.052 980.544 432.732 1006.32C428.794 1015.7 425.349 1025.85 421.903 1039.13C420.919 1042.26 419.934 1044.6 418.458 1046.17H366.776C366.284 1044.6 365.792 1043.82 365.792 1043.04C365.792 1039.92 365.3 1036.79 365.3 1033.67C365.3 1030.54 364.808 1027.42 364.808 1023.51C364.808 1000.07 365.3 971.95 368.745 944.608C370.714 927.421 368.745 911.016 362.839 894.61C357.425 878.205 352.01 860.237 346.596 837.582C344.627 829.77 342.659 821.176 340.69 813.364C335.276 790.709 329.369 767.273 322.478 745.399C315.587 723.525 309.189 707.901 301.806 695.401C292.946 680.558 282.61 672.746 270.797 672.746C270.305 672.746 269.32 672.746 268.828 672.746C258.492 673.527 248.648 678.996 238.804 689.151C225.022 703.213 212.225 719.619 199.427 735.243L191.06 745.399C178.755 760.242 167.434 778.21 157.098 797.74C145.285 820.395 137.902 847.738 131.503 873.518C121.167 914.141 106.893 950.858 86.713 986.793C78.8377 1000.86 70.4702 1018.04 67.0248 1041.48C66.5326 1044.6 66.0403 1046.17 64.5638 1047.73H5.49939C4.51498 1046.17 3.53055 1044.6 3.03836 1042.26C-1.39148 1022.73 -9.26669 1006.32 -21.0796 992.262L-26.0016 986.012C-36.3379 973.513 -47.1664 960.232 -56.5182 945.389C-70.7921 922.734 -83.5894 897.735 -95.8945 868.049C-106.723 841.488 -119.028 821.176 -133.302 803.99C-139.701 796.177 -146.099 786.803 -153.482 774.304C-165.295 754.773 -176.616 732.899 -187.444 711.807C-190.89 704.776 -194.335 698.526 -197.78 691.495C-207.625 671.965 -215.008 654.778 -220.422 636.81C-233.219 592.281 -236.172 544.627 -237.649 504.004C-238.141 476.661 -236.172 447.757 -230.758 413.383C-227.313 391.509 -224.359 367.292 -224.852 342.293C-225.836 304.795 -231.743 270.421 -243.063 239.954C-254.384 211.049 -271.611 196.206 -293.76 196.206C-294.745 196.206 -295.729 196.206 -297.206 196.206C-311.479 196.987 -325.753 203.237 -340.027 215.736C-351.84 225.111 -362.669 237.61 -374.974 252.453C-399.584 282.921 -427.639 302.451 -460.125 311.826C-460.617 311.826 -461.109 311.826 -461.601 312.607C-462.586 312.607 -463.57 313.388 -464.062 313.388C-464.555 313.388 -465.047 313.388 -465.539 312.607V231.361C-464.555 230.579 -464.062 229.798 -463.57 229.798C-460.617 229.798 -458.156 229.017 -456.187 229.017C-454.218 229.017 -452.25 228.236 -450.773 228.236C-439.944 227.455 -429.608 225.111 -420.256 220.424C-407.951 214.955 -396.138 205.581 -384.818 196.987C-380.88 193.862 -377.435 191.519 -373.989 188.394C-347.902 168.864 -323.292 159.489 -298.682 159.489C-291.791 159.489 -284.9 160.27 -278.01 161.833C-256.353 166.52 -239.618 184.488 -228.297 217.299C-218.453 243.86 -211.562 275.89 -206.148 317.294C-202.703 342.293 -202.21 364.948 -204.179 386.041C-205.164 400.884 -207.132 414.946 -209.101 429.008C-210.086 434.476 -210.578 439.163 -211.562 444.632C-216.484 478.224 -217.469 508.691 -215.008 539.159C-209.593 601.656 -190.89 649.31 -158.896 678.996C-150.529 686.808 -142.654 690.714 -135.763 690.714C-124.934 690.714 -115.583 681.339 -106.723 663.371C-100.324 650.872 -95.4023 636.81 -90.4802 623.529C-88.5114 618.842 -86.5426 613.374 -85.0659 608.686C-71.7765 574.313 -53.0728 547.752 -29.9392 529.784C-20.0952 522.753 -10.2511 516.503 -0.899261 510.254C5.00717 506.348 10.4214 503.223 16.3279 499.317C43.399 480.568 58.1651 450.1 62.595 404.79C64.5638 383.697 65.5482 361.823 65.0559 339.949C65.0559 332.137 65.5482 323.544 67.0248 315.732C69.4858 300.107 75.3922 291.514 84.7441 289.17C88.6817 287.608 93.1116 287.608 97.0492 287.608H99.018H100.987H102.463C118.706 287.608 133.964 275.89 144.793 255.578C156.606 232.923 162.02 203.237 159.067 173.551C155.621 137.615 147.254 104.804 139.379 75.8993C137.902 70.4308 136.425 64.9623 134.949 59.4938C130.027 40.7447 124.613 21.9956 121.167 1.68404C115.753 -27.2208 117.229 -49.876 126.089 -70.1875C131.011 -81.9057 137.41 -91.2803 143.316 -99.8736C144.793 -102.217 146.762 -104.561 148.238 -106.905C152.176 -111.592 155.621 -117.06 160.051 -119.404ZM160.051 -122.529C152.668 -119.404 148.238 -108.467 142.824 -101.436C136.425 -92.8427 130.027 -83.4682 125.105 -71.75C115.261 -48.3136 115.261 -23.3148 120.183 2.46526C125.105 28.2453 131.996 51.6817 138.394 76.6805C146.269 107.929 154.637 139.959 157.59 174.332C163.004 232.142 136.918 284.483 102.956 284.483C102.463 284.483 101.971 284.483 101.479 284.483C100.002 284.483 98.5258 284.483 97.0492 284.483C92.6193 284.483 88.6817 284.483 84.7441 286.046C74.4078 289.17 68.5014 298.545 65.5482 314.95C64.0716 322.763 63.5794 331.356 63.5794 339.949C63.5794 361.823 63.0872 382.916 61.1183 404.79C56.6885 450.881 40.938 479.786 15.8357 496.973C0.085144 507.129 -15.6653 515.722 -30.4314 527.44C-53.5649 544.627 -72.2687 571.188 -86.5426 607.124C-93.4334 625.092 -100.324 644.622 -108.2 661.809C-116.567 679.777 -125.427 688.37 -135.271 688.37C-142.162 688.37 -149.545 684.464 -157.42 677.433C-189.413 646.966 -207.625 600.093 -213.039 539.159C-215.5 507.129 -214.023 476.661 -209.593 445.413C-206.64 425.883 -203.687 406.352 -201.718 386.822C-199.749 363.386 -200.734 339.949 -203.687 317.294C-208.609 281.358 -214.515 246.985 -225.836 215.736C-237.649 183.707 -254.876 164.176 -277.025 159.489C-284.408 157.927 -291.299 157.145 -298.19 157.145C-324.277 157.145 -349.871 168.082 -374.481 186.05C-389.74 196.987 -404.506 210.268 -420.749 217.299C-430.593 221.986 -440.929 224.33 -450.773 225.111C-455.203 225.111 -459.14 226.673 -463.57 226.673C-463.57 226.673 -463.57 226.673 -464.062 226.673C-465.539 226.673 -467.016 228.236 -468 229.798C-468 257.922 -468 286.046 -468 314.169C-467.016 315.732 -465.539 316.513 -464.555 316.513C-463.078 316.513 -461.601 315.732 -460.125 314.95C-428.624 305.576 -399.584 286.827 -373.497 254.797C-362.669 241.516 -351.348 228.236 -339.043 218.08C-325.753 207.143 -311.479 199.331 -296.713 198.55C-295.729 198.55 -294.745 198.55 -293.268 198.55C-273.088 198.55 -256.353 211.049 -244.54 241.516C-233.219 271.984 -227.313 306.357 -226.82 342.293C-226.328 366.51 -229.281 389.166 -232.727 411.821C-237.649 442.288 -240.602 472.755 -239.618 504.004C-238.141 550.096 -234.696 595.406 -221.898 636.81C-215.992 657.122 -207.625 675.09 -199.257 692.276C-184.491 720.4 -170.709 749.305 -154.959 775.085C-148.56 786.022 -141.669 796.178 -134.286 804.771C-119.52 821.958 -107.707 843.05 -97.371 868.049C-85.5582 896.173 -72.7609 921.953 -57.5026 946.17C-46.6741 963.357 -34.369 978.2 -22.064 993.043C-11.7277 1005.54 -3.36026 1021.17 1.56177 1041.48C2.54617 1044.6 4.0228 1046.95 5.49939 1049.29C25.6797 1049.29 45.86 1049.29 66.0403 1049.29C68.0092 1046.95 68.9936 1044.6 69.4858 1040.7C72.9312 1019.6 80.3143 1002.42 88.6818 987.575C107.385 953.983 123.136 916.484 133.964 873.518C140.855 846.956 148.238 820.395 159.559 798.521C169.403 778.991 180.724 761.804 193.029 746.961C208.779 727.431 224.038 707.901 240.772 690.714C249.632 681.339 259.476 675.871 269.812 675.09C270.305 675.09 271.289 675.09 271.781 675.09C283.102 675.09 293.438 682.902 301.313 696.964C309.681 711.025 316.08 728.212 321.986 746.18C331.338 775.866 338.229 807.115 346.104 838.363C351.026 857.893 356.44 877.424 362.839 896.173C368.253 911.016 370.222 926.64 368.253 944.608C365.3 971.169 364.808 997.73 364.315 1024.29C364.315 1031.32 365.3 1037.57 365.3 1043.82C365.3 1046.95 366.284 1048.51 367.269 1050.07C384.988 1050.07 402.707 1050.07 420.427 1050.07C422.888 1048.51 423.872 1045.38 424.856 1041.48C427.81 1030.54 431.255 1018.82 435.685 1009.45C447.498 982.106 464.233 968.826 483.429 964.138C490.812 962.576 498.687 963.357 506.562 962.576C523.789 960.232 541.016 961.795 558.243 955.545C579.408 947.733 594.667 921.953 597.128 883.673C598.604 864.924 599.096 846.175 597.128 827.426C592.205 783.678 574.486 751.648 548.399 743.055C542.493 740.711 536.587 739.93 531.172 739.93C517.391 739.93 504.593 745.399 491.796 755.554C479.491 764.929 468.663 777.428 456.85 788.365C451.435 793.834 446.021 797.74 440.115 801.646C434.208 805.552 428.302 807.896 422.395 807.896C412.551 807.896 403.692 803.208 394.34 793.834C382.035 782.116 372.683 764.929 364.315 745.399C353.487 718.056 345.12 688.37 336.26 659.465C332.814 647.747 328.385 636.81 322.97 626.654C314.111 610.249 303.282 604.78 290.977 603.999C289.501 603.999 288.024 603.999 286.055 603.999C263.906 603.999 245.202 619.623 228.467 643.06C203.857 678.214 179.247 713.369 154.637 748.524C137.902 772.741 124.613 802.427 114.276 835.238C106.893 859.456 99.0179 883.673 87.2051 901.641C73.9156 921.953 59.1495 936.796 40.938 937.577C40.4458 937.577 39.9536 937.577 39.4614 937.577C27.6485 937.577 17.8045 928.203 9.92923 913.359C3.53058 903.204 -0.407043 893.048 -4.3447 882.111C-18.1264 844.613 -34.369 809.458 -51.5962 776.647C-59.9636 760.242 -65.8701 742.274 -68.3311 721.181C-70.7921 696.182 -68.3311 672.746 -63.409 649.31C-53.565 604.78 -33.8769 579.782 -8.77451 564.157C6.48376 554.783 21.7421 549.314 37.0004 540.721C59.1495 528.222 74.9 503.223 86.2207 469.631C92.1271 453.225 96.5569 435.257 101.971 418.071C110.339 391.509 123.136 371.198 137.41 353.23C153.16 332.918 168.911 311.044 182.2 286.046C195.49 261.828 207.795 235.267 219.116 207.924C226.499 189.956 232.897 182.925 240.28 182.925C246.187 182.925 252.585 186.832 260.461 193.862C277.688 207.924 289.008 230.579 297.868 258.703C307.22 286.827 315.587 314.95 322.478 345.418C328.385 371.979 331.83 398.54 332.815 426.664C333.799 451.663 333.799 476.661 334.783 501.66C335.275 514.941 336.26 528.221 338.721 541.502C342.659 567.282 353.979 580.563 368.745 583.688C375.636 585.25 383.019 586.812 389.91 586.812C405.168 586.812 420.427 581.344 434.208 568.063C449.959 552.439 461.772 531.346 471.616 505.566C484.905 469.631 492.288 429.789 494.749 387.603C496.226 361.823 496.718 336.043 502.624 311.044C507.054 290.733 512.961 272.765 524.774 261.828C528.711 258.703 532.157 255.578 536.586 254.016C538.063 253.235 539.54 253.235 541.016 253.235C548.399 253.235 553.814 259.484 556.767 271.984C560.704 287.608 562.181 304.795 564.15 321.2C567.595 354.792 572.025 387.603 581.869 417.289C589.252 439.944 597.62 461.037 608.448 479.005C620.753 500.879 634.535 519.628 647.824 539.159C661.114 558.689 672.927 581.344 684.247 603.999C698.029 632.904 712.795 661.028 728.546 686.027C737.405 700.088 746.757 713.369 756.109 726.65C757.586 728.212 759.062 732.118 761.031 732.118C761.523 732.118 762.016 732.118 763 731.337C763 681.339 763 631.342 763 582.125C758.57 569.626 752.172 561.032 745.281 553.22C731.991 537.596 717.717 525.097 703.443 513.379C684.74 498.536 666.036 485.255 648.809 466.506C625.183 441.507 607.464 408.696 599.589 362.604C597.128 348.543 595.651 334.481 595.651 319.638C595.651 303.232 595.159 286.046 597.62 269.64C601.065 239.954 610.909 220.424 627.152 208.705C638.473 200.112 651.27 195.425 664.067 189.956C682.279 181.363 700.49 171.207 717.717 156.364C741.343 136.053 753.648 103.242 757.586 60.275C760.047 30.5889 757.094 2.46526 748.234 -24.096C742.327 -42.0639 732.483 -52.2196 721.655 -60.0318C710.826 -67.8439 699.014 -71.75 687.693 -77.2185C680.31 -80.3433 673.419 -83.4682 666.036 -88.1554C658.161 -93.6239 652.254 -102.998 647.332 -113.935C645.856 -117.06 644.379 -120.185 642.41 -122.529C629.121 -122.529 615.831 -122.529 603.034 -122.529C600.573 -118.623 600.573 -113.154 600.081 -107.686C599.096 -95.1864 597.62 -83.4682 595.159 -71.75C592.698 -60.813 588.268 -54.5633 581.869 -52.2197C573.502 -48.3136 565.627 -47.5324 557.259 -45.9699C544.462 -43.6263 531.664 -42.0639 519.359 -40.5015C515.422 -39.7202 510.992 -39.7202 507.054 -39.7202C486.382 -39.7202 467.186 -46.7512 449.959 -70.1875C441.099 -82.687 434.701 -97.53 429.286 -114.717C427.317 -117.06 426.333 -120.185 423.872 -122.529C410.09 -122.529 396.309 -122.529 382.527 -122.529C380.558 -119.404 381.05 -116.279 382.035 -113.154C385.972 -95.9676 391.387 -78.7809 398.77 -64.7191C418.458 -29.5645 441.099 -3.78445 469.155 7.93375C476.046 11.0586 482.936 11.8398 490.319 11.8398C491.796 11.8398 493.273 11.8398 494.749 11.8398C500.163 11.8398 506.07 11.8398 511.484 11.8398C517.883 11.8398 524.282 11.8398 530.68 13.4022C540.032 15.7459 548.892 18.8707 555.29 32.1513C557.751 36.8386 559.72 42.3071 560.704 48.5568C566.611 90.7423 562.673 140.74 536.094 170.426C526.25 181.363 516.406 191.519 507.054 204.018C486.382 230.579 474.569 266.515 469.647 309.482C467.678 329.012 467.186 348.543 466.694 368.073C466.201 394.634 465.217 421.195 459.803 446.194C453.896 473.537 445.529 497.754 431.255 514.941C422.395 525.878 413.044 531.346 402.707 531.346C399.754 531.346 396.309 530.565 393.355 529.784C380.558 525.097 372.191 511.035 367.269 491.505C363.331 475.88 361.854 459.475 361.362 443.069C359.393 393.853 355.948 345.418 350.042 296.201C347.581 272.765 346.104 249.329 345.12 225.892C343.151 189.175 336.26 155.583 321.494 127.459C314.111 114.179 306.235 101.679 298.36 89.1799C288.024 71.212 281.133 50.9005 277.195 26.6828C273.75 6.37132 271.289 -14.7214 267.844 -35.033C262.922 -62.3754 256.523 -88.1554 250.617 -115.498C249.632 -118.623 248.156 -120.966 246.187 -122.529C217.639 -122.529 188.599 -122.529 160.051 -122.529Z" fill="#5200FF"/>
</svg>
